{"title":"A Good Day to Die Hard(2013)MPEG-4[DaScubaDude]","uid":14654745,"size":967384044,"categoryP":"video","categoryS":"movies","magnet":"?xt=urn:btih:f9ae85a5a2089777ae131cf06de40d18671f0584&amp;dn=A+Good+Day+to+Die+Hard%282013%29MPEG-4%5BDaScubaDude%5D&amp;tr=udp%3A%2F%2Ftracker.leechers-paradise.org%3A6969&amp;tr=udp%3A%2F%2Fzer0day.ch%3A1337&amp;tr=udp%3A%2F%2Fopen.demonii.com%3A1337&amp;tr=udp%3A%2F%2Ftracker.coppersurfer.tk%3A6969&amp;tr=udp%3A%2F%2Fexodus.desync.com%3A6969","seeders":1,"leechers":0,"uploader":"dascuba","files":1,"time":1463690044,"description":"A Good Day to Die Hard (2013)\r\nR | 1h 38min | Action, Crime, Thriller | 14 February 2013 (USA)\r\nJohn McClane travels to Russia to help out his seemingly wayward son, Jack, only to discover that Jack is a CIA operative working undercover, causing the father and son to team up against underworld forces.\r\nDirector: John Moore\r\nWriters: Skip Woods, Roderick Thorp (certain original characters by)\r\nStars: Bruce Willis, Jai Courtney, Sebastian Koch \r\n\r\nGeneral\r\nComplete name                            : GoodDaytoDHA_GOOD_DAY_TO_DIE_HARD_Title1.mp4\r\nFormat                                   : MPEG-4\r\nFormat profile                           : Base Media\r\nCodec ID                                 : isom (isom/iso2/avc1/mp41)\r\nFile size                                : 923 MiB\r\nDuration                                 : 1h 37mn\r\nOverall bit rate                         : 1 322 Kbps\r\nMovie name                               : A_GOOD_DAY_TO_DIE_HARD\r\nGenre                                    : Action\r\nWriting application                      : Lavf54.6.100\r\n\r\nVideo\r\nID                                       : 1\r\nFormat                                   : AVC\r\nFormat/Info                              : Advanced Video Codec\r\nFormat profile                           :   \r\nFormat settings, CABAC                   : No\r\nFormat settings, ReFrames                : 6 frames\r\nCodec ID                                 : avc1\r\nCodec ID/Info                            : Advanced Video Coding\r\nDuration                                 : 1h 37mn\r\nBit rate                                 : 1 187 Kbps\r\nWidth                                    : 720 pixels\r\nHeight                                   : 404 pixels\r\nDisplay aspect ratio                     : 16:9\r\nFrame rate mode                          : Constant\r\nFrame rate                               : 29.970 (30000/1001) fps\r\nColor space                              : YUV\r\nChroma subsampling                       : 4:2:0\r\nBit depth                                : 8 bits\r\nScan type                                : Progressive\r\nBits/(Pixel*Frame)                       : 0.136\r\nStream size                              : 828 MiB (90%)\r\n\r\nAudio\r\nID                                       : 2\r\nFormat                                   : AAC\r\nFormat/Info                              : Advanced Audio Codec\r\nFormat profile                           : LC\r\nCodec ID                                 : 40\r\nDuration                                 : 1h 37mn\r\nBit rate mode                            : Constant\r\nBit rate                                 : 128 Kbps\r\nChannel(s)                               : 2 channels\r\nChannel positions                        : Front: L R\r\nSampling rate                            : 44.1 KHz\r\nFrame rate                               : 43.066 fps (1024 spf)\r\nCompression mode                         : Lossy\r\nStream size                              : 89.3 MiB (10%)\r\nDefault                                  : Yes\r\nAlternate group                          : 1","torrent":{"xt":"urn:btih:f9ae85a5a2089777ae131cf06de40d18671f0584","amp;dn":"A+Good+Day+to+Die+Hard%282013%29MPEG-4%5BDaScubaDude%5D","amp;tr":["udp%3A%2F%2Ftracker.leechers-paradise.org%3A6969","udp%3A%2F%2Fzer0day.ch%3A1337","udp%3A%2F%2Fopen.demonii.com%3A1337","udp%3A%2F%2Ftracker.coppersurfer.tk%3A6969","udp%3A%2F%2Fexodus.desync.com%3A6969"],"infoHash":"f9ae85a5a2089777ae131cf06de40d18671f0584","infoHashBuffer":{"type":"Buffer","data":[249,174,133,165,162,8,151,119,174,19,28,240,109,228,13,24,103,31,5,132]},"announce":[],"urlList":[]}}